<svg width="28" height="28" viewBox="0 0 28 28" fill="none" xmlns="http://www.w3.org/2000/svg">
<path fill-rule="evenodd" clip-rule="evenodd" d="M9.52519 3.03316H18.4744C19.0926 3.03315 19.619 3.03313 20.0512 3.06844C20.5052 3.10554 20.9469 3.18678 21.3691 3.40193C22.0057 3.7263 22.5233 4.24388 22.8477 4.8805C23.0628 5.30275 23.1441 5.74445 23.1812 6.19847C23.2165 6.63064 23.2165 7.15701 23.2164 7.77519V25.0832C23.2164 25.4624 23.0119 25.8122 22.6814 25.9982C22.3509 26.1842 21.9457 26.1775 21.6215 25.9807L13.9998 21.3532L6.3781 25.9807C6.0539 26.1775 5.64876 26.1842 5.31823 25.9982C4.98771 25.8122 4.78317 25.4624 4.78317 25.0832V7.7752C4.78316 7.15704 4.78314 6.63062 4.81845 6.19847C4.85555 5.74445 4.93679 5.30275 5.15194 4.8805C5.47631 4.24388 5.99389 3.7263 6.6305 3.40193C7.05275 3.18678 7.49445 3.10554 7.94846 3.06844C8.38061 3.03313 8.90705 3.03315 9.52519 3.03316ZM9.09986 5.13324C8.14955 5.13324 7.92341 5.1462 7.76996 5.19606C7.37927 5.323 7.07296 5.62931 6.94602 6.02001C6.89616 6.17345 6.88321 6.39959 6.88321 7.34991V23.2174L13.4549 19.2274C13.7898 19.0241 14.2099 19.0241 14.5448 19.2274L21.1165 23.2174V7.34991C21.1165 6.39959 21.1035 6.17345 21.0537 6.02001C20.9267 5.62931 20.6204 5.323 20.2297 5.19606C20.0763 5.1462 19.8501 5.13324 18.8998 5.13324H9.09986Z" fill="#171719"/>
</svg>
