<svg width="109" height="30" viewBox="0 0 109 30" fill="none" xmlns="http://www.w3.org/2000/svg">
<path d="M13.8293 2.47225C14.1848 2.25898 14.6272 2.25344 14.9885 2.45662L24.22 7.64901C24.5829 7.85344 24.8078 8.23731 24.8079 8.65389V20.192C24.8079 20.5184 24.6693 20.8296 24.427 21.0484L18.0334 26.818C17.6937 27.1244 17.2047 27.2017 16.7874 27.0142C16.3701 26.8266 16.1031 26.4092 16.1067 25.9517L16.1448 21.3463H5.76978C5.46381 21.3463 5.16975 21.2247 4.95337 21.0084C4.73698 20.792 4.61548 20.498 4.61548 20.192V8.65389C4.61552 8.24884 4.82786 7.8732 5.17505 7.66463L13.8293 2.47225ZM6.9231 9.30623V19.0387H10.385V11.5387C10.385 10.9014 10.9021 10.3844 11.5393 10.3844H17.3079C17.9451 10.3844 18.4622 10.9014 18.4622 11.5387V20.7691H18.4563L18.4358 23.3463L22.5002 19.6783V9.32869L14.4417 4.79549L6.9231 9.30623ZM12.6926 19.0387H16.1545V12.692H12.6926V19.0387Z" fill="url(#paint0_linear_288_13953)"/>
<path d="M101.66 19.2778V21.6094H93.518C93.2172 21.6094 92.9477 21.553 92.7095 21.4402C92.4838 21.3274 92.2895 21.1707 92.1266 20.9701C91.9762 20.7821 91.8633 20.569 91.7881 20.3308C91.7129 20.0801 91.6753 19.8231 91.6753 19.5599V6.84875H101.472V9.18038H94.289V12.9975H100.889V15.2539H94.289V18.8453C94.289 19.1337 94.4269 19.2778 94.7026 19.2778H101.66ZM101.942 12.0385H105.533V6.84875H108.147V23.1513H105.533V14.3137H101.942V12.0385Z" fill="#171719"/>
<path d="M89.5693 23.1513H75.3163C75.0154 23.1513 74.7459 23.0949 74.5077 22.9821C74.2821 22.8693 74.0878 22.7126 73.9248 22.512C73.7744 22.324 73.6616 22.1046 73.5864 21.8539C73.5111 21.6157 73.4735 21.365 73.4735 21.1017V17.6043H86.9556V6.84875H89.5693V23.1513ZM79.7163 6.84875C79.7163 7.6385 79.8855 8.29662 80.224 8.82311C80.5624 9.33707 81.0137 9.73821 81.5778 10.0265C82.2297 10.3399 83.0006 10.528 83.8906 10.5906V12.847C83.3265 12.8094 82.7875 12.753 82.2735 12.6778C81.7596 12.5901 81.2832 12.4584 80.8445 12.2829C80.318 12.0824 79.8479 11.8317 79.4342 11.5308C79.0331 11.2174 78.7071 10.8225 78.4564 10.3462C78.1932 10.8225 77.8547 11.2174 77.4411 11.5308C77.0274 11.8317 76.5573 12.0824 76.0308 12.2829C75.592 12.4459 75.1157 12.5713 74.6017 12.659C74.1003 12.7468 73.5738 12.8094 73.0222 12.847V10.5906C73.4359 10.5656 73.8308 10.5092 74.2069 10.4214C74.5955 10.3337 74.9527 10.2146 75.2787 10.0641C75.8678 9.77582 76.3316 9.36841 76.6701 8.84192C77.0211 8.31542 77.1966 7.65103 77.1966 6.84875H79.7163ZM84.9436 15.6488H79.6975V17.1342H77.0462V15.6488H72.9094V13.5804H84.9436V15.6488ZM86.9556 21.1017V19.6539H76.0872V20.6693C76.0872 20.9576 76.2251 21.1017 76.5009 21.1017H86.9556Z" fill="#171719"/>
<path d="M53.7625 22.0983V19.7667H60.7573V16.5325H55.9813C55.6804 16.5325 55.4109 16.4761 55.1727 16.3633C54.9471 16.2505 54.7528 16.1 54.5898 15.912C54.4394 15.7114 54.3266 15.4921 54.2513 15.2539C54.1761 15.0032 54.1385 14.7462 54.1385 14.4829V6.84875H70.0462V16.5325H63.3898V19.7667H70.4223V22.0983H53.7625ZM67.4325 14.2009V9.18038H56.7522V13.7684C56.7522 14.0567 56.8901 14.2009 57.1659 14.2009H67.4325Z" fill="#171719"/>
<path d="M51.0873 15.0282H36.6462C36.3454 15.0282 36.0759 14.9718 35.8377 14.8589C35.6121 14.7461 35.4178 14.5957 35.2548 14.4077C35.1044 14.2071 34.9915 13.9877 34.9163 13.7495C34.8411 13.4988 34.8035 13.2418 34.8035 12.9786V6.84868H37.4172V8.5974H48.4736V6.84868H51.0873V15.0282ZM51.2753 18.8641H44.4685V23.1512H41.8172V18.8641H34.6155V16.5324H51.2753V18.8641ZM48.4736 12.7341V10.8914H37.4172V12.3017C37.4172 12.59 37.5551 12.7341 37.8309 12.7341H48.4736Z" fill="#171719"/>
<defs>
<linearGradient id="paint0_linear_288_13953" x1="27.6924" y1="4.63215" x2="6.92317" y2="25.4014" gradientUnits="userSpaceOnUse">
<stop stop-color="#FF4961"/>
<stop offset="1" stop-color="#FFEACC"/>
</linearGradient>
</defs>
</svg>
