<svg width="30" height="30" viewBox="0 0 30 30" fill="none" xmlns="http://www.w3.org/2000/svg">
<path d="M13.8293 2.47225C14.1847 2.25898 14.6271 2.25344 14.9884 2.45662L24.2199 7.64901C24.5828 7.85344 24.8077 8.23731 24.8078 8.65389V20.192C24.8078 20.5184 24.6692 20.8296 24.4269 21.0484L18.0334 26.818C17.6936 27.1244 17.2046 27.2017 16.7873 27.0142C16.37 26.8266 16.103 26.4092 16.1066 25.9517L16.1447 21.3463H5.76968C5.46372 21.3463 5.16965 21.2247 4.95328 21.0084C4.73689 20.792 4.61538 20.498 4.61538 20.192V8.65389C4.61543 8.24884 4.82777 7.8732 5.17495 7.66463L13.8293 2.47225ZM6.923 9.30623V19.0387H10.3849V11.5387C10.3849 10.9014 10.902 10.3844 11.5392 10.3844H17.3078C17.945 10.3844 18.4621 10.9014 18.4621 11.5387V20.7691H18.4562L18.4357 23.3463L22.5002 19.6783V9.32869L14.4416 4.79549L6.923 9.30623ZM12.6925 19.0387H16.1544V12.692H12.6925V19.0387Z" fill="url(#paint0_linear_103_9459)"/>
<defs>
<linearGradient id="paint0_linear_103_9459" x1="27.6923" y1="4.63215" x2="6.92308" y2="25.4014" gradientUnits="userSpaceOnUse">
<stop stop-color="#FF4961"/>
<stop offset="1" stop-color="#FFEACC"/>
</linearGradient>
</defs>
</svg>
