<svg width="75" height="18" viewBox="0 0 75 18" fill="none" xmlns="http://www.w3.org/2000/svg">
<path d="M67.6598 13.2778V15.6094H59.5179C59.2171 15.6094 58.9476 15.553 58.7094 15.4402C58.4837 15.3274 58.2894 15.1707 58.1265 14.9701C57.976 14.7821 57.8632 14.569 57.788 14.3308C57.7128 14.0801 57.6752 13.8231 57.6752 13.5599V0.848753H67.4718V3.18038H60.2889V6.99747H66.8889V9.25388H60.2889V12.8453C60.2889 13.1337 60.4268 13.2778 60.7025 13.2778H67.6598ZM67.9419 6.0385H71.5333V0.848753H74.147V17.1513H71.5333V8.31371H67.9419V6.0385Z" fill="#171719"/>
<path d="M55.5691 17.1513H41.3161C41.0152 17.1513 40.7457 17.0949 40.5075 16.9821C40.2819 16.8693 40.0876 16.7126 39.9246 16.512C39.7742 16.324 39.6614 16.1046 39.5862 15.8539C39.5109 15.6157 39.4733 15.365 39.4733 15.1017V11.6043H52.9554V0.848753H55.5691V17.1513ZM45.7161 0.848753C45.7161 1.6385 45.8853 2.29662 46.2238 2.82311C46.5622 3.33707 47.0135 3.73821 47.5776 4.02653C48.2295 4.33992 49.0004 4.52795 49.8904 4.59063V6.84704C49.3263 6.80944 48.7873 6.75303 48.2733 6.67781C47.7594 6.59006 47.283 6.45844 46.8443 6.28294C46.3178 6.08237 45.8477 5.83166 45.434 5.5308C45.0329 5.21741 44.7069 4.82254 44.4562 4.34619C44.193 4.82254 43.8545 5.21741 43.4409 5.5308C43.0272 5.83166 42.5571 6.08237 42.0306 6.28294C41.5918 6.4459 41.1155 6.57126 40.6015 6.65901C40.1001 6.74676 39.5736 6.80944 39.022 6.84704V4.59063C39.4357 4.56556 39.8306 4.50915 40.2067 4.4214C40.5953 4.33365 40.9525 4.21457 41.2785 4.06414C41.8676 3.77582 42.3315 3.36841 42.6699 2.84192C43.0209 2.31542 43.1964 1.65103 43.1964 0.848753H45.7161ZM50.9434 9.64875H45.6973V11.1342H43.046V9.64875H38.9092V7.58038H50.9434V9.64875ZM52.9554 15.1017V13.6539H42.087V14.6693C42.087 14.9576 42.2249 15.1017 42.5007 15.1017H52.9554Z" fill="#171719"/>
<path d="M19.7623 16.0983V13.7667H26.7572V10.5325H21.9811C21.6802 10.5325 21.4107 10.4761 21.1725 10.3633C20.9469 10.2505 20.7526 10.1 20.5896 9.912C20.4392 9.71143 20.3264 9.49206 20.2512 9.25388C20.176 9.00317 20.1384 8.74619 20.1384 8.48294V0.848753H36.046V10.5325H29.3896V13.7667H36.4221V16.0983H19.7623ZM33.4324 8.20089V3.18038H22.752V7.76841C22.752 8.05673 22.8899 8.20089 23.1657 8.20089H33.4324Z" fill="#171719"/>
<path d="M17.0871 9.02816H2.64613C2.34527 9.02816 2.07576 8.97175 1.83758 8.85893C1.61194 8.74611 1.41764 8.59568 1.25467 8.40765C1.10425 8.20708 0.991425 7.98771 0.916211 7.74953C0.840998 7.49882 0.803391 7.24184 0.803391 6.97859V0.848677H3.41707V2.5974H14.4735V0.848677H17.0871V9.02816ZM17.2752 12.8641H10.4683V17.1512H7.81707V12.8641H0.615356V10.5324H17.2752V12.8641ZM14.4735 6.73415V4.89141H3.41707V6.30167C3.41707 6.58999 3.55496 6.73415 3.83074 6.73415H14.4735Z" fill="#171719"/>
</svg>
