<svg width="313" height="30" viewBox="0 0 313 30" fill="none" xmlns="http://www.w3.org/2000/svg">
<path d="M13.8292 2.47226C14.1847 2.25899 14.6271 2.25345 14.9884 2.45663L24.2198 7.64902C24.5828 7.85345 24.8077 8.23732 24.8077 8.6539V20.192C24.8077 20.5185 24.6692 20.8297 24.4269 21.0484L18.0333 26.818C17.6936 27.1244 17.2046 27.2017 16.7872 27.0143C16.3699 26.8267 16.1029 26.4092 16.1066 25.9518L16.1447 21.3463H5.76965C5.46369 21.3463 5.16962 21.2247 4.95325 21.0084C4.73686 20.792 4.61536 20.498 4.61536 20.192V8.6539C4.6154 8.24885 4.82774 7.87322 5.17493 7.66464L13.8292 2.47226ZM6.92297 9.30624V19.0387H10.3849V11.5387C10.3849 10.9014 10.9019 10.3844 11.5392 10.3844H17.3077C17.945 10.3844 18.462 10.9014 18.462 11.5387V20.7691H18.4562L18.4357 23.3463L22.5001 19.6783V9.3287L14.4415 4.7955L6.92297 9.30624ZM12.6925 19.0387H16.1544V12.692H12.6925V19.0387Z" fill="url(#paint0_linear_57_11669)"/>
<path d="M101.66 19.2778V21.6094H93.5179C93.2171 21.6094 92.9475 21.553 92.7094 21.4402C92.4837 21.3274 92.2894 21.1707 92.1265 20.9701C91.976 20.7821 91.8632 20.569 91.788 20.3308C91.7128 20.0801 91.6752 19.8231 91.6752 19.5599V6.84875H101.472V9.18038H94.2888V12.9975H100.889V15.2539H94.2888V18.8453C94.2888 19.1337 94.4267 19.2778 94.7025 19.2778H101.66ZM101.942 12.0385H105.533V6.84875H108.147V23.1513H105.533V14.3137H101.942V12.0385Z" fill="#171719"/>
<path d="M89.569 23.1513H75.316C75.0152 23.1513 74.7456 23.0949 74.5075 22.9821C74.2818 22.8693 74.0875 22.7126 73.9246 22.512C73.7741 22.324 73.6613 22.1046 73.5861 21.8539C73.5109 21.6157 73.4733 21.365 73.4733 21.1017V17.6043H86.9553V6.84875H89.569V23.1513ZM79.716 6.84875C79.716 7.6385 79.8852 8.29662 80.2237 8.82311C80.5622 9.33707 81.0135 9.73821 81.5776 10.0265C82.2294 10.3399 83.0004 10.528 83.8904 10.5906V12.847C83.3263 12.8094 82.7872 12.753 82.2733 12.6778C81.7593 12.5901 81.283 12.4584 80.8442 12.2829C80.3177 12.0824 79.8476 11.8317 79.434 11.5308C79.0328 11.2174 78.7069 10.8225 78.4562 10.3462C78.1929 10.8225 77.8545 11.2174 77.4408 11.5308C77.0271 11.8317 76.557 12.0824 76.0305 12.2829C75.5918 12.4459 75.1154 12.5713 74.6015 12.659C74.1001 12.7468 73.5736 12.8094 73.022 12.847V10.5906C73.4357 10.5656 73.8306 10.5092 74.2066 10.4214C74.5952 10.3337 74.9525 10.2146 75.2784 10.0641C75.8676 9.77582 76.3314 9.36841 76.6699 8.84192C77.0209 8.31542 77.1964 7.65103 77.1964 6.84875H79.716ZM84.9434 15.6488H79.6972V17.1342H77.0459V15.6488H72.9092V13.5804H84.9434V15.6488ZM86.9553 21.1017V19.6539H76.087V20.6693C76.087 20.9576 76.2249 21.1017 76.5006 21.1017H86.9553Z" fill="#171719"/>
<path d="M53.7622 22.0983V19.7667H60.7571V16.5325H55.981C55.6802 16.5325 55.4106 16.4761 55.1725 16.3633C54.9468 16.2505 54.7525 16.1 54.5896 15.912C54.4391 15.7114 54.3263 15.4921 54.2511 15.2539C54.1759 15.0032 54.1383 14.7462 54.1383 14.4829V6.84875H70.046V16.5325H63.3896V19.7667H70.422V22.0983H53.7622ZM67.4323 14.2009V9.18038H56.7519V13.7684C56.7519 14.0567 56.8898 14.2009 57.1656 14.2009H67.4323Z" fill="#171719"/>
<path d="M51.0871 15.0282H36.6461C36.3453 15.0282 36.0758 14.9718 35.8376 14.8589C35.6119 14.7461 35.4176 14.5957 35.2547 14.4077C35.1042 14.2071 34.9914 13.9877 34.9162 13.7495C34.841 13.4988 34.8034 13.2419 34.8034 12.9786V6.84869H37.4171V8.59741H48.4735V6.84869H51.0871V15.0282ZM51.2752 18.8641H44.4683V23.1513H41.8171V18.8641H34.6154V16.5325H51.2752V18.8641ZM48.4735 12.7342V10.8914H37.4171V12.3017C37.4171 12.59 37.555 12.7342 37.8307 12.7342H48.4735Z" fill="#171719"/>
<defs>
<linearGradient id="paint0_linear_57_11669" x1="27.6923" y1="4.63216" x2="6.92305" y2="25.4014" gradientUnits="userSpaceOnUse">
<stop stop-color="#FF4961"/>
<stop offset="1" stop-color="#FFEACC"/>
</linearGradient>
</defs>
</svg>
